<svg xmlns="http://www.w3.org/2000/svg" xmlns:xlink="http://www.w3.org/1999/xlink" width="1200" zoomAndPan="magnify" viewBox="0 0 900 899.99999" height="1200" preserveAspectRatio="xMidYMid meet" version="1.0"><defs><clipPath id="ac4da936c5"><path d="M 8.714844 0 L 891.285156 0 C 893.597656 0 895.8125 0.917969 897.449219 2.550781 C 899.082031 4.1875 900 6.402344 900 8.714844 L 900 891.285156 C 900 893.597656 899.082031 895.8125 897.449219 897.449219 C 895.8125 899.082031 893.597656 900 891.285156 900 L 8.714844 900 C 6.402344 900 4.1875 899.082031 2.550781 897.449219 C 0.917969 895.8125 0 893.597656 0 891.285156 L 0 8.714844 C 0 6.402344 0.917969 4.1875 2.550781 2.550781 C 4.1875 0.917969 6.402344 0 8.714844 0 Z M 8.714844 0 " clip-rule="nonzero"/></clipPath></defs><rect x="-90" width="1080" fill="#ffffff" y="-89.999999" height="1079.999988" fill-opacity="1"/><rect x="-90" width="1080" fill="#ffffff" y="-89.999999" height="1079.999988" fill-opacity="1"/><g clip-path="url(#ac4da936c5)"><rect x="-90" width="1080" fill="#111111" y="-89.999999" height="1079.999988" fill-opacity="1"/></g><path fill="#f6f6f6" d="M 713.773438 551.304688 C 708.828125 551.304688 704.390625 553.449219 701.308594 556.847656 L 526.667969 490.878906 C 530.382812 481.59375 532.441406 471.472656 532.441406 460.863281 C 532.441406 456.226562 532.03125 451.6875 531.285156 447.265625 L 594.085938 429.164062 C 601.457031 444.652344 617.25 455.359375 635.546875 455.359375 C 660.902344 455.359375 681.445312 434.808594 681.445312 409.457031 C 681.445312 384.105469 660.902344 363.554688 635.546875 363.554688 C 610.195312 363.554688 589.640625 384.105469 589.640625 409.457031 C 589.640625 411.628906 589.808594 413.757812 590.097656 415.851562 L 527.5625 433.808594 C 517.800781 406.296875 495.414062 385.632812 463.828125 380.957031 L 463.828125 229.109375 C 487.894531 223.992188 503.949219 203.613281 503.949219 179.242188 C 503.949219 151.007812 481.179688 128.125 452.949219 128.125 C 424.71875 128.125 402.304688 151.011719 402.304688 179.242188 C 402.304688 203.648438 420.207031 224.046875 442.769531 229.128906 L 442.769531 380.53125 C 420.207031 383.101562 401.472656 394.308594 388.519531 410.644531 L 325.125 360.609375 C 326.34375 357.765625 326.917969 354.632812 326.917969 351.34375 C 326.917969 338.335938 316.320312 327.792969 303.3125 327.792969 C 290.308594 327.792969 279.738281 338.335938 279.738281 351.34375 C 279.738281 364.351562 290.269531 374.894531 303.277344 374.894531 C 307.929688 374.894531 312.253906 373.523438 315.910156 371.191406 L 380.394531 422.257812 C 374.160156 433.730469 370.605469 446.882812 370.605469 460.863281 C 370.605469 468.039062 371.550781 474.996094 373.304688 481.625 L 209.542969 546.402344 C 203.367188 536.800781 192.597656 530.441406 180.332031 530.441406 C 161.152344 530.441406 145.605469 545.988281 145.605469 565.167969 C 145.605469 584.347656 161.152344 599.890625 180.332031 599.890625 C 198.453125 599.890625 213.320312 586.019531 214.910156 568.316406 L 381.980469 502.226562 C 389.492188 514.828125 400.316406 525.214844 413.269531 532.175781 L 390.574219 594.632812 C 389.792969 594.554688 388.996094 594.511719 388.195312 594.511719 C 375.1875 594.511719 364.644531 605.058594 364.644531 618.0625 C 364.644531 631.066406 375.1875 641.613281 388.195312 641.613281 C 401.203125 641.613281 411.742188 631.066406 411.742188 618.0625 C 411.742188 610.847656 408.488281 604.394531 403.378906 600.074219 L 426.054688 537.664062 C 434.066406 540.320312 442.621094 541.78125 451.523438 541.78125 C 458.089844 541.78125 464.464844 540.976562 470.578125 539.503906 L 524.34375 682.699219 C 509.875 691.730469 500.238281 707.78125 500.238281 726.089844 C 500.238281 754.324219 523.125 777.207031 551.355469 777.207031 C 579.589844 777.207031 602.472656 754.324219 602.472656 726.089844 C 602.472656 697.859375 579.589844 674.976562 551.355469 674.976562 C 549.359375 674.976562 547.386719 675.101562 545.445312 675.324219 L 491.363281 531.277344 C 503.226562 524.550781 513.226562 514.925781 520.382812 503.351562 L 697.046875 570.082031 C 698.007812 578.472656 705.121094 584.992188 713.769531 584.992188 C 723.074219 584.992188 730.617188 577.445312 730.617188 568.144531 C 730.621094 558.84375 723.078125 551.304688 713.773438 551.304688 Z M 713.773438 551.304688 " fill-opacity="1" fill-rule="nonzero"/></svg>